<svg width="892" height="255" viewBox="0 0 892 255" fill="none" xmlns="http://www.w3.org/2000/svg">
<path d="M309.25 65.4995C310.702 65.4908 310.702 65.4908 312.183 65.4819C318.088 65.586 322.67 66.3939 328 68.9995C331.153 72.285 332.141 76.1592 333.305 80.4487C333.511 81.1796 333.716 81.9105 333.928 82.6635C334.585 85.0025 335.231 87.3445 335.875 89.687C336.512 91.9723 337.152 94.257 337.792 96.5415C338.217 98.0629 338.641 99.5848 339.062 101.107C340.148 105.015 341.264 108.911 342.435 112.795C342.783 113.953 342.783 113.953 343.138 115.135C343.581 116.603 344.029 118.07 344.483 119.535C345.495 122.888 346 125.456 346 129C339.674 130.139 333.477 130.114 327.062 130.062C325.464 130.055 325.464 130.055 323.834 130.048C321.223 130.037 318.611 130.02 316 130C315.798 129.334 315.597 128.669 315.389 127.983C314.469 124.947 313.547 121.911 312.625 118.875C312.308 117.828 311.991 116.781 311.664 115.703C310.169 110.78 308.667 105.867 307 101C301.678 100.704 301.678 100.704 297 103C297.654 106.451 298.46 109.813 299.41 113.195C299.678 114.158 299.945 115.121 300.221 116.113C300.784 118.129 301.349 120.144 301.916 122.16C302.182 123.12 302.448 124.08 302.723 125.07C302.968 125.944 303.213 126.818 303.465 127.719C304 130 304 130 304 133C299.88 134.292 296.332 135.262 292 135C290.333 130 288.667 125 287 120C284.03 120.33 281.06 120.66 278 121C276.874 125.502 277.402 127.777 278.438 132.25C278.725 133.513 279.012 134.776 279.309 136.078C279.537 137.042 279.765 138.006 280 139C278.543 139.503 277.084 140.002 275.625 140.5C274.813 140.778 274.001 141.056 273.164 141.343C271 142 271 142 269 142C266.125 134.349 263.59 126.641 261.25 118.812C260.934 117.765 260.618 116.717 260.293 115.638C259.526 113.093 258.762 110.547 258 108C254.13 107.925 250.726 107.952 247 109C247.348 110.201 247.348 110.201 247.703 111.427C248.573 114.44 249.442 117.454 250.308 120.468C250.864 122.398 251.422 124.327 251.98 126.255C253.862 132.806 255.62 139.325 257 146C249.5 149 249.5 149 245 149C243.35 144.05 241.7 139.1 240 134C234.393 133.838 234.393 133.838 230 136C230.451 139.683 231.033 143.116 232.062 146.687C233 150 233 150 233 154C231.732 154.506 230.46 155.004 229.188 155.5C228.48 155.778 227.772 156.056 227.043 156.343C225 157 225 157 222 157C220.02 151.39 218.04 145.78 216 140C211.545 140.99 211.545 140.99 207 142C207.623 148.439 208.64 154.675 210 161C208.566 161.673 207.127 162.338 205.688 163C204.887 163.371 204.086 163.742 203.262 164.125C201 165 201 165 198 165C197.648 163.766 197.648 163.766 197.29 162.508C194.844 153.937 192.386 145.37 189.908 136.809C189.505 135.415 189.103 134.02 188.701 132.626C188.111 130.578 187.519 128.531 186.926 126.484C186.579 125.285 186.233 124.086 185.876 122.85C185.113 120.088 185.113 120.088 184 118C180.271 118.502 176.639 119.042 173 120C173.247 120.721 173.495 121.442 173.75 122.185C176.251 129.567 178.486 136.988 180.562 144.5C180.999 146.056 180.999 146.056 181.443 147.644C183.417 154.734 185.249 161.852 187 169C178.5 172.125 178.5 172.125 174 171C172.02 163.575 172.02 163.575 170 156C165.545 156.495 165.545 156.495 161 157C159.885 161.06 160.198 163.627 161.438 167.625C162.357 170.634 163 172.841 163 176C161.753 176.508 160.503 177.006 159.25 177.5C158.206 177.917 158.206 177.917 157.141 178.343C155 179 155 179 151 179C149.878 174.943 148.757 170.886 147.637 166.829C147.256 165.45 146.875 164.071 146.493 162.691C145.944 160.706 145.396 158.72 144.848 156.734C144.353 154.943 144.353 154.943 143.848 153.116C143.204 150.751 142.594 148.377 142 146C138.7 146.99 135.4 147.98 132 149C132.543 155.794 133.963 161.779 136.062 168.25C136.622 169.982 137.176 171.716 137.723 173.453C137.968 174.207 138.213 174.961 138.465 175.739C139.054 178.226 139.092 180.452 139 183C137.753 183.508 136.503 184.006 135.25 184.5C134.206 184.917 134.206 184.917 133.141 185.343C131 186 131 186 127 186C126.823 185.263 126.647 184.527 126.465 183.768C125.664 180.429 124.863 177.089 124.062 173.75C123.785 172.591 123.507 171.432 123.221 170.238C122.953 169.123 122.686 168.008 122.41 166.859C122.164 165.832 121.918 164.806 121.664 163.749C121.12 161.496 120.562 159.247 120 157C115.05 157.99 115.05 157.99 110 159C109.59 157.542 109.18 156.084 108.758 154.582C108.214 152.658 107.669 150.735 107.125 148.812C106.856 147.852 106.586 146.893 106.309 145.904C106.044 144.972 105.78 144.041 105.508 143.082C105.267 142.228 105.026 141.374 104.778 140.495C103.979 137.934 103.028 135.477 102 133C96.8307 133.405 96.8307 133.405 92 135C93.2676 140.87 94.649 146.695 96.1875 152.5C96.3953 153.29 96.6031 154.08 96.8171 154.894C98.1248 159.827 99.4867 164.743 100.883 169.652C101.202 170.777 101.522 171.903 101.851 173.062C102.484 175.283 103.122 177.504 103.764 179.722C104.055 180.741 104.345 181.759 104.645 182.808C104.906 183.714 105.167 184.619 105.437 185.552C106 188 106 188 106 192C104.564 192.505 103.126 193.004 101.688 193.5C100.487 193.917 100.487 193.917 99.2617 194.343C97 195 97 195 94 195C93.4924 193.586 92.9943 192.168 92.5 190.75C92.2216 189.961 91.9431 189.172 91.6562 188.359C91 186 91 186 91 182C85.06 182.99 85.06 182.99 79 184C79.99 188.62 80.98 193.24 82 198C77.1479 199.617 74.818 200.229 70 200C66.1974 186.444 63.1131 172.726 60 159C58.7213 158.979 57.4425 158.958 56.125 158.937C55.4057 158.925 54.6864 158.914 53.9453 158.902C51.9181 158.873 51.9181 158.873 50 160C50.7267 167.33 52.3518 174.39 54 181.562C57.2825 195.892 57.2825 195.892 58 202C54.9851 203.004 52.9582 203.103 49.8125 203.062C48.2244 203.041 46.6363 203.021 45 203C43.02 193.595 43.02 193.595 41 184C36.05 184.495 36.05 184.495 31 185C31.6249 191.338 32.2854 197.67 33 204C22.5416 203.339 22.5416 203.339 19 200C15.4837 192.941 13.6287 185.303 11.75 177.687C9.82882 170.068 7.8779 162.463 5.76953 154.894C5.49256 153.899 5.49256 153.899 5.20999 152.885C4.30899 149.657 3.4015 146.43 2.48926 143.205C2.00151 141.464 2.00151 141.464 1.50391 139.687C1.2133 138.66 0.9227 137.632 0.623291 136.574C0 134 0 134 0 131C1.0862 131.317 1.0862 131.317 2.19434 131.64C9.66285 133.684 16.5209 134.514 24.25 134.437C25.3806 134.427 26.5112 134.418 27.676 134.407C83.6476 133.256 141.943 107.706 194.55 90.7549C215.168 84.1125 235.751 77.7479 256.802 72.5969C259.02 72.0715 259.02 72.0715 261 70.9995C261.929 71.0304 262.859 71.0614 263.816 71.0933C268.455 71.1602 272.826 70.1361 277.354 69.2202C288.002 67.0785 298.373 65.5064 309.25 65.4995Z" fill="#3DB1A3"/>
<path d="M133.875 8.56217C135.061 8.57679 135.061 8.57679 136.271 8.59171C146.668 8.90672 152.899 12.3823 160.676 19.195C167.387 27.2931 168.72 34.6863 168.488 45.0075C168.481 46.2141 168.474 47.4207 168.467 48.6639C168.439 52.4848 168.376 56.3042 168.312 60.1247C168.287 62.7288 168.265 65.333 168.244 67.9372C168.189 74.2918 168.106 80.6456 168 86.9997C166.753 87.508 165.502 88.006 164.25 88.4997C163.554 88.7781 162.858 89.0565 162.141 89.3434C160 89.9997 160 89.9997 156 89.9997C155.888 89.1469 155.888 89.1469 155.773 88.277C154.725 82.1178 152.812 78.0718 148 73.9997C143.244 71.3192 139.438 70.3075 134 70.9997C130.296 73.0263 128.346 74.4801 126 77.9997C125.856 79.1753 125.711 80.3509 125.562 81.5622C125.284 83.2637 125.284 83.2637 125 84.9997C121.511 87.3255 120.103 87.4183 116 86.9997C113.562 86.0622 113.562 86.0622 112 83.9997C111.416 78.2513 113.253 73.5123 116.484 68.8512C121.331 62.9304 126.949 58.7265 134.687 57.6129C140.784 57.2557 144.981 58.1718 150.395 61.0348C151.451 61.5866 152.508 62.1384 153.597 62.7069C154.786 63.3468 154.786 63.3468 156 63.9997C155.956 59.9971 155.885 55.9958 155.792 51.9941C155.764 50.6355 155.743 49.2767 155.729 47.9179C155.766 37.2002 155.766 37.2002 151 27.9997C146.277 23.6276 141.289 21.6158 134.875 21.4372C128.384 21.8038 123.459 22.9982 118.312 27.1872C115.508 30.5981 113.221 34.1902 111 37.9997C112.114 38.1234 113.227 38.2472 114.375 38.3747C118 38.9997 118 38.9997 120 40.9997C120.55 47.0521 120.55 47.0521 118.875 49.9372C116.177 51.4661 114.045 51.2588 111 50.9997C110.34 50.6697 109.68 50.3397 109 49.9997C101.881 49.2938 95.4798 49.0091 89.5859 53.4606C86.9432 56.0252 85.0976 58.4532 84 61.9997C84 63.6665 84.022 65.3334 84.0625 66.9997C83.9297 69.5739 83.9297 69.5739 83 71.9997C79.8652 74.2569 76.7374 75.7904 73.1992 77.3317C67.841 80.1253 65.0611 84.7633 62.7656 90.2106C60.4637 98.5962 60.8397 107.711 65.0684 115.373C65.3758 115.91 65.6832 116.447 66 117C62.8757 117.67 59.7504 118.335 56.625 119C55.7355 119.19 54.8461 119.381 53.9297 119.578C53.0789 119.758 52.2281 119.939 51.3516 120.125C50.566 120.292 49.7805 120.46 48.9712 120.632C47 121 47 121 45 121C46.2038 118.506 47.4543 116.318 49 114C49.1947 111.676 49.1947 111.676 49.0195 109.097C48.9868 108.13 48.9541 107.163 48.9204 106.166C48.8848 105.142 48.8492 104.117 48.8125 103.062C48.6573 93.8576 49.0116 86.968 54 78.9997C54.7038 77.8724 54.7038 77.8724 55.4219 76.7223C59.2636 71.1766 64.1276 65.3051 71 63.9997C71.2062 62.7003 71.4125 61.4009 71.625 60.0622C73.4472 52.0141 78.0435 45.9889 84.7148 41.2458C87.3308 39.8193 89.8908 39.0758 92.75 38.2497C96.7601 36.9596 96.7601 36.9596 99.3437 33.8122C99.9544 32.0855 100.527 30.3448 101.062 28.5934C103.775 21.0883 111.633 14.547 118.724 11.1816C123.824 9.05828 128.38 8.48623 133.875 8.56217Z" fill="#F8F8F8"/>
<path d="M309.002 145C308.875 152.221 306.68 157.403 303.353 163.682C301.914 166.499 300.971 168.499 301.166 171.695C301.981 173.944 302.876 176.015 304.002 178.125C308.038 185.753 308.119 193.993 306.248 202.379C303.047 212.408 297.577 221.321 288.002 226.312C282.48 228.942 277.224 230.146 271.103 230.022C266.342 229.97 262.33 229.931 258.466 233.039C256.506 235.619 254.759 238.279 253.002 241C246.902 247.816 237.235 253.365 227.984 254.177C212.958 254.577 202.415 253.69 191.002 243C181.681 233.416 178.465 222.487 178.524 209.468C178.562 207.04 178.625 204.614 178.689 202.187C178.714 200.512 178.737 198.837 178.757 197.162C178.812 193.107 178.898 189.054 179.002 185C183.41 183.086 187.7 181.379 192.314 180C193.428 179.665 194.542 179.33 195.689 178.984C197.329 178.497 197.329 178.497 199.002 178C200.939 177.417 202.877 176.833 204.814 176.25C206.21 175.833 207.606 175.416 209.002 175C206.821 183.126 202.922 187.9 195.771 192.152C194.002 193 194.002 193 192.002 193C192.025 197.459 192.102 201.916 192.189 206.375C192.195 207.627 192.201 208.878 192.207 210.168C192.418 219.143 193.698 226.436 200.02 233.14C206.68 239.377 212.586 241.594 221.744 241.553C231.256 241.213 239.021 236.797 245.552 230.008C247.132 228.007 247.132 228.007 247.982 225.367C249.311 221.998 250.155 220.299 253.002 218C258.474 216.819 264.052 217.061 269.619 217.16C276.991 217.187 283.024 214.901 288.459 209.851C293.265 204.084 294.74 197.044 294.459 189.676C293.484 183.968 290.403 179.628 286.689 175.312C285.002 173 285.002 173 284.314 170.187C285.214 166.016 287.293 164.197 290.181 161.156C293.665 157.03 295.313 152.065 297.002 147C301.076 145.511 304.667 144.737 309.002 145Z" fill="#F6F6F7"/>
<path d="M235.68 15.2805C241.446 19.5515 244.717 23.9777 247.188 30.6868C248.634 34.1681 249.404 35.6526 252.695 37.5657C254.778 38.3563 256.875 39.109 258.984 39.8235C264.732 42.0646 269.816 46.6994 273 51.9993C272.67 53.3193 272.34 54.6393 272 55.9993C268.37 56.6593 264.74 57.3193 261 57.9993C259.861 56.5019 258.721 55.0045 257.582 53.5071C253.81 49.9118 249.629 49.7464 244.625 49.8118C242.914 49.8292 242.914 49.8292 241.168 49.8469C238.646 49.9682 236.395 50.2322 233.938 50.7493C231 50.9993 231 50.9993 228.563 49.3743C227 46.9993 227 46.9993 226.438 44.4993C227 41.9993 227 41.9993 229.25 39.6868C232 37.9993 232 37.9993 236 37.9993C233.924 31.6412 230.593 27.7116 225 23.9993C218.341 21.2737 210.367 20.3351 203.52 22.9446C198.909 25.6952 195.422 29.1552 193 33.9993C192.844 36.4049 192.742 38.7863 192.684 41.1946C192.663 41.902 192.642 42.6095 192.621 43.3384C192.555 45.6002 192.496 47.8622 192.438 50.1243C192.394 51.6569 192.351 53.1894 192.307 54.7219C192.2 58.4809 192.098 62.24 192 65.9993C192.603 65.65 193.207 65.3006 193.828 64.9407C195.027 64.2581 195.027 64.2581 196.25 63.5618C197.433 62.8831 197.433 62.8831 198.641 62.1907C203.946 59.5115 209.741 58.9339 215.414 60.7883C219.172 62.3917 222.343 63.8053 225 66.9993C225 67.6593 225 68.3193 225 68.9993C216.648 71.939 208.198 74.384 199.676 76.7737C193.97 78.39 188.388 80.1677 182.863 82.3352C181 82.9993 181 82.9993 179 82.9993C178.898 76.1859 178.828 69.3726 178.78 62.5586C178.76 60.2434 178.733 57.9283 178.698 55.6133C178.649 52.2744 178.627 48.9361 178.609 45.5969C178.589 44.5716 178.568 43.5462 178.547 42.4898C178.544 32.4694 182.086 24.2821 189 16.9993C203.32 5.05733 220.284 5.43516 235.68 15.2805Z" fill="#F5F5F6"/>
<path d="M168.002 188C168.127 192.764 168.217 197.528 168.277 202.294C168.302 203.91 168.335 205.525 168.379 207.141C168.708 219.638 167.856 230.765 158.752 240.375C150.292 249.101 141.003 254.264 128.708 254.519C115.166 254.413 106.198 251.927 96.2012 242.285C88.7986 234.593 88.7986 234.593 87.002 231C85.8302 230.974 84.6584 230.948 83.4512 230.921C69.5786 230.484 60.2682 228.821 49.8027 219.023C48.002 217 48.002 217 48.002 215C50.187 214.748 52.3753 214.524 54.5645 214.312C56.3917 214.121 56.3917 214.121 58.2559 213.925C61.9378 213.998 63.6708 214.764 66.8967 216.333C70.673 217.528 74.537 217.07 78.4578 216.957C92.8644 216.615 92.8644 216.615 96.875 219.213C99.905 222.607 101.331 226.835 103.002 231C105.068 233.486 107.307 235.237 110.002 237C110.559 237.408 111.116 237.817 111.689 238.238C118.15 242.289 125.659 241.767 133.002 241C141.725 238.862 147.721 234.622 152.377 227C156.605 218.235 155.522 208.494 155.002 199C152.692 197.68 150.382 196.36 148.002 195C149.002 193 149.002 193 150.752 192.313C151.494 192.114 152.237 191.915 153.002 191.71C153.806 191.491 154.611 191.272 155.439 191.046C156.285 190.825 157.131 190.603 158.002 190.375C158.848 190.145 159.693 189.916 160.564 189.679C166.803 188 166.803 188 168.002 188Z" fill="#F7F7F8"/>
<path d="M41.0002 81C40.7952 81.6755 40.5902 82.3509 40.3791 83.0469C40.1097 83.9389 39.8402 84.8309 39.5627 85.75C39.2958 86.6317 39.029 87.5134 38.7541 88.4219C38.5053 89.2727 38.2565 90.1234 38.0002 91C37.8055 91.6007 37.6109 92.2014 37.4103 92.8203C36.9032 95.5151 36.9337 98.1561 36.9162 100.891C36.784 108.092 36.3658 114.573 31.6173 120.355C25.849 123.98 18.4861 123.109 12.0002 122C6.97641 120.636 3.91697 119.375 1.00016 115C0.583475 111.923 0.774935 110.405 2.29313 107.676C9.75443 98.3684 27.8243 81 41.0002 81Z" fill="#4AB78F"/>
<path d="M322.002 142C338.114 141.44 338.114 141.44 344.002 145C344.662 145.66 345.322 146.32 346.002 147C345.481 153.619 340.676 157.612 335.959 161.824C320.938 174 320.938 174 315.002 174C313.689 171.5 313.689 171.5 313.002 168C314.01 165.894 315.284 164.114 316.623 162.203C320.385 156.193 321.359 148.944 322.002 142Z" fill="#1497DA"/>
<path d="M251 168.875C254.17 170.658 255.848 173.07 258 176C258 176.66 258 177.32 258 178C258.784 178.309 259.567 178.618 260.375 178.937C263 180 263 180 265 181C268.197 181.231 271.387 181.394 274.59 181.517C279.786 181.786 279.786 181.786 282 184C282.557 189.231 282.557 189.231 280.688 191.812C275.12 195.73 266.606 194.434 260.25 193.375C252.602 190.139 246.364 184.741 243 177C243.308 173.771 243.944 173.055 246.312 170.687C249 169 249 169 251 168.875Z" fill="#F6F7F7"/>
<path d="M246.001 197C246.661 197.66 247.321 198.32 248.001 199C247.54 205.462 247.54 205.462 245.001 208C238.099 210.301 230.639 210.234 223.439 210.312C222.546 210.33 221.653 210.348 220.732 210.366C219.892 210.365 219.051 210.364 218.185 210.363C217.428 210.366 216.67 210.369 215.89 210.372C214.955 210.188 214.955 210.188 214.001 210C211.7 206.548 211.657 205.053 212.001 201C214.511 198.49 215.604 198.654 219.087 198.402C220.101 198.323 221.114 198.244 222.158 198.162C223.751 198.051 223.751 198.051 225.376 197.937C227.468 197.783 229.559 197.625 231.65 197.465C233.045 197.366 233.045 197.366 234.468 197.265C236.961 197.065 236.961 197.065 239.172 196.451C241.703 195.827 243.521 196.282 246.001 197Z" fill="#F7F7F8"/>
<path d="M60 0C61.0689 2.05818 62.0325 4.08528 62.8594 6.25391C64.3764 10.1862 65.3125 12.5111 68.8125 15C72.215 16.0675 75.4545 16.6455 79 17C79 17.66 79 18.32 79 19C78.2523 19.2307 77.5047 19.4615 76.7344 19.6992C69.0864 22.099 69.0864 22.099 64 28C62.902 30.3116 61.9358 32.6137 61 35C59 32 59 32 58.2812 30.0977C56.9474 26.6229 55.9132 24.5279 52.6211 22.625C50.1019 21.6276 47.5976 20.7676 45 20C44.01 19.67 43.02 19.34 42 19C42 18.34 42 17.68 42 17C42.6755 16.8904 43.3509 16.7809 44.0469 16.668C44.9389 16.5094 45.8309 16.3509 46.75 16.1875C47.6317 16.0367 48.5134 15.8859 49.4219 15.7305C52.342 14.9031 53.8521 14.1479 56 12C57.3392 9.06754 57.3392 9.06754 58.25 5.8125C58.7527 4.18248 58.7527 4.18248 59.2656 2.51953C59.508 1.68809 59.7503 0.856641 60 0Z" fill="#41A69D"/>
<path d="M279 41.9997C303.192 41.37 303.192 41.37 313 44.9997C313.849 45.3129 314.699 45.6262 315.574 45.9489C319.82 47.6787 323.03 49.3842 326 52.9997C325.67 53.6597 325.34 54.3197 325 54.9997C323.951 54.6672 323.951 54.6672 322.88 54.3281C313.37 51.599 304.683 51.9583 294.895 52.7321C291.342 52.8688 288.44 52.9128 285 51.9997C282.104 49.0073 280.484 45.867 279 41.9997Z" fill="#1594D2"/>
<path d="M93.0015 94C98.6428 95.5815 103.809 97.8079 108.001 102C108.331 102.99 108.661 103.98 109.001 105C99.5813 108.966 91.6535 108.559 82.0015 105C79.7013 101.55 79.5701 100.054 80.0015 96C84.3063 93.1301 87.9478 93.4147 93.0015 94Z" fill="#F6F6F7"/>
<path d="M36.002 30.9998C37.7993 33.6958 38.2685 34.9518 39.002 37.9373C40.032 40.8967 40.67 41.8062 43.4199 43.4099C45.9261 44.3961 48.4127 45.2614 51.002 45.9998C47.502 47.7498 47.502 47.7498 44.002 49.4998C39.84 52.968 38.6429 56.9417 37.002 61.9998C35.002 59.9998 35.002 59.9998 33.6895 56.6248C31.3365 51.5703 28.8531 49.6983 23.6895 47.7498C22.8026 47.5023 21.9157 47.2548 21.002 46.9998C24.002 44.9998 24.002 44.9998 27.502 43.7498C31.6711 41.6652 32.3773 40.2752 34.002 35.9998C34.3938 35.051 34.7857 34.1023 35.1895 33.1248C35.4576 32.4235 35.7257 31.7223 36.002 30.9998Z" fill="#51B28C"/>
<path d="M639.001 87.5411C643.951 87.5411 648.901 87.5411 654.001 87.5411C659.809 98.9112 665.177 110.404 670.295 122.1C671.52 124.898 672.756 127.691 673.993 130.484C674.777 132.27 675.561 134.056 676.345 135.842C676.713 136.673 677.082 137.504 677.462 138.36C677.796 139.129 678.131 139.898 678.475 140.691C678.771 141.364 679.067 142.038 679.371 142.731C680.001 144.541 680.001 144.541 680.001 147.541C680.661 147.541 681.321 147.541 682.001 147.541C682.368 146.364 682.736 145.187 683.114 143.975C685.43 137.036 688.339 130.335 691.188 123.604C691.772 122.219 692.356 120.835 692.94 119.45C696.146 111.858 699.372 104.274 702.688 96.7286C703.002 96.0074 703.317 95.2863 703.64 94.5432C704.867 91.7873 705.848 89.6938 708.001 87.5411C711.223 87.3106 711.223 87.3106 715.063 87.3536C716.968 87.3632 716.968 87.3632 718.911 87.3731C722.001 87.5411 722.001 87.5411 723.001 88.5411C723.101 90.9696 723.137 93.3698 723.13 95.7989C723.133 96.9378 723.133 96.9378 723.135 98.0998C723.14 100.622 723.137 103.144 723.134 105.666C723.134 107.411 723.135 109.156 723.136 110.901C723.138 114.563 723.136 118.225 723.131 121.887C723.125 126.591 723.129 131.296 723.135 136.001C723.138 139.606 723.137 143.21 723.135 146.815C723.134 148.55 723.135 150.285 723.137 152.021C723.14 154.442 723.136 156.862 723.13 159.283C723.132 160.007 723.134 160.732 723.136 161.478C723.115 166.427 723.115 166.427 722.001 167.541C720.003 167.64 718.001 167.671 716.001 167.666C714.908 167.669 713.815 167.671 712.688 167.674C710.001 167.541 710.001 167.541 709.001 166.541C708.878 165.007 708.823 163.468 708.795 161.929C708.766 160.458 708.766 160.458 708.735 158.957C708.718 157.89 708.702 156.824 708.684 155.725C708.664 154.638 708.643 153.552 708.621 152.433C708.556 148.948 708.497 145.463 708.438 141.979C708.395 139.622 708.351 137.266 708.307 134.91C708.2 129.121 708.098 123.331 708.001 117.541C701.975 130.675 696.1 143.834 690.598 157.197C690.154 158.265 689.709 159.332 689.251 160.432C688.864 161.37 688.477 162.309 688.079 163.276C687.001 165.541 687.001 165.541 685.001 167.541C682.837 167.736 682.837 167.736 680.376 167.666C679.559 167.648 678.741 167.63 677.899 167.611C677.273 167.588 676.646 167.565 676.001 167.541C675.654 166.767 675.307 165.994 674.95 165.196C673.614 162.214 672.278 159.232 670.941 156.25C670.372 154.98 669.803 153.71 669.234 152.44C664.169 141.135 659.087 129.837 654.001 118.541C653.985 119.44 653.985 119.44 653.97 120.357C653.862 126.569 653.747 132.782 653.628 138.994C653.585 141.315 653.543 143.636 653.503 145.958C653.446 149.286 653.382 152.615 653.317 155.943C653.292 157.511 653.292 157.511 653.267 159.109C653.247 160.07 653.227 161.031 653.206 162.021C653.191 162.872 653.175 163.722 653.159 164.599C653.001 166.541 653.001 166.541 652.001 167.541C650.003 167.64 648.001 167.671 646.001 167.666C644.908 167.669 643.815 167.671 642.688 167.674C640.001 167.541 640.001 167.541 639.001 166.541C638.906 164.077 638.875 161.64 638.887 159.176C638.887 158.405 638.887 157.634 638.887 156.84C638.888 154.281 638.895 151.722 638.903 149.162C638.905 147.392 638.906 145.623 638.907 143.853C638.911 139.186 638.921 134.518 638.932 129.851C638.942 125.092 638.947 120.333 638.952 115.574C638.963 106.23 638.98 96.8855 639.001 87.5411Z" fill="#F7F7F8"/>
<path d="M880.689 87.4087C881.782 87.4113 882.876 87.4138 884.002 87.4165C885.095 87.4139 886.188 87.4113 887.314 87.4087C890.002 87.5415 890.002 87.5415 891.002 88.5415C891.102 90.9701 891.138 93.3702 891.131 95.7993C891.133 96.5586 891.135 97.318 891.136 98.1003C891.141 100.622 891.138 103.144 891.135 105.667C891.135 107.411 891.136 109.156 891.137 110.901C891.139 114.563 891.137 118.225 891.132 121.887C891.126 126.592 891.13 131.297 891.136 136.001C891.139 139.606 891.138 143.211 891.136 146.815C891.135 148.551 891.136 150.286 891.138 152.021C891.141 154.442 891.137 156.863 891.131 159.284C891.133 160.008 891.135 160.732 891.137 161.478C891.116 166.427 891.116 166.427 890.002 167.542C887.982 167.614 885.96 167.625 883.939 167.604C882.835 167.595 881.73 167.586 880.592 167.577C879.737 167.565 878.882 167.553 878.002 167.542C877.342 165.562 876.682 163.582 876.002 161.542C875.342 162.14 874.682 162.738 874.002 163.354C866.812 168.596 859.719 169.555 851.002 168.542C843.631 166.597 836.763 161.883 832.65 155.417C828.108 146.528 827.49 136.132 829.721 126.409C833.275 117.034 839.285 112.077 848.002 107.542C854.932 105.232 862.046 105.658 868.564 108.917C871.133 110.359 873.549 111.906 876.002 113.542C876.039 112.413 876.039 112.413 876.078 111.262C876.193 107.876 876.316 104.49 876.439 101.104C876.479 99.92 876.518 98.736 876.558 97.5161C876.621 95.8291 876.621 95.8291 876.685 94.1079C876.722 93.0658 876.759 92.0237 876.796 90.95C877.087 87.5477 877.246 87.5788 880.689 87.4087ZM845.189 125.604C841.082 131.12 841.395 136.896 842.002 143.542C843.603 148.946 846.26 152.422 851.002 155.542C855.457 157.769 861.166 157.032 866.002 156.542C870.733 154.875 873.168 151.78 875.439 147.417C877.716 141.468 878.404 135.253 876.119 129.206C873.325 124.228 870.107 121.949 865.002 119.542C864.342 119.212 863.682 118.882 863.002 118.542C855.097 117.577 850.459 119.584 845.189 125.604Z" fill="#F7F7F7"/>
<path d="M549 87.5411C549 102.061 549 116.581 549 131.541C551.475 129.066 551.475 129.066 554 126.541C554.987 125.572 554.987 125.572 555.993 124.584C560 120.635 563.803 116.582 567.457 112.303C568.221 111.431 568.221 111.431 569 110.541C569.619 109.69 569.619 109.69 570.25 108.822C573.072 106.757 575.77 107.26 579.188 107.354C580.46 107.381 581.732 107.408 583.043 107.436C584.507 107.488 584.507 107.488 586 107.541C585.406 110.946 584.249 112.733 581.934 115.272C581.303 115.967 580.673 116.662 580.023 117.379C576.055 121.62 572.044 125.82 567.991 129.981C567.345 130.657 566.7 131.333 566.036 132.029C565.452 132.633 564.868 133.237 564.266 133.859C562.7 135.59 562.7 135.59 563 138.541C564.714 140.647 566.439 142.587 568.313 144.541C568.849 145.113 569.385 145.684 569.937 146.273C572.642 149.139 575.393 151.948 578.211 154.701C578.712 155.192 579.213 155.682 579.73 156.188C581.117 157.535 582.517 158.868 583.918 160.201C585.91 162.44 586.77 163.584 587 166.541C585.138 168.404 582.25 167.843 579.75 167.916C578.611 167.965 577.471 168.014 576.297 168.065C572.001 167.383 570.796 165.8 568 162.541C566.798 161.356 566.798 161.356 565.571 160.147C564.36 158.95 564.36 158.95 563.125 157.729C561.923 156.543 561.923 156.543 560.696 155.334C557.337 151.854 554.185 148.181 551 144.541C550.67 151.801 550.34 159.061 550 166.541C547.377 167.853 545.363 167.674 542.438 167.666C541.447 167.669 540.455 167.671 539.434 167.674C537 167.541 537 167.541 536 166.541C535.9 164.113 535.864 161.712 535.871 159.283C535.869 158.524 535.867 157.765 535.866 156.982C535.861 154.46 535.864 151.938 535.868 149.416C535.867 147.671 535.866 145.926 535.865 144.181C535.863 140.519 535.865 136.857 535.87 133.195C535.876 128.491 535.872 123.786 535.866 119.081C535.863 115.477 535.864 111.872 535.867 108.267C535.867 106.532 535.866 104.797 535.864 103.062C535.862 100.641 535.865 98.2199 535.871 95.799C535.869 95.0748 535.867 94.3506 535.865 93.6044C535.904 84.5055 537.119 87.5411 549 87.5411Z" fill="#F7F7F8"/>
<path d="M804.032 108.451C811.168 111.794 815.328 116.148 818.383 123.498C819.542 127.333 819.386 131.183 819.329 135.159C819.327 136.056 819.325 136.954 819.323 137.879C819.316 139.763 819.303 141.647 819.282 143.532C819.251 146.428 819.241 149.324 819.235 152.221C819.226 154.054 819.215 155.888 819.204 157.721C819.197 159.026 819.197 159.026 819.191 160.356C819.118 166.424 819.118 166.424 818.001 167.541C816.169 167.64 814.334 167.671 812.501 167.666C811.5 167.669 810.5 167.671 809.469 167.674C807.001 167.541 807.001 167.541 806.001 166.541C805.89 163.886 805.839 161.252 805.825 158.596C805.802 156.945 805.778 155.294 805.753 153.643C805.718 151.036 805.688 148.43 805.675 145.823C805.659 143.309 805.619 140.797 805.575 138.284C805.577 137.513 805.579 136.743 805.581 135.95C805.457 130.403 804.142 127.132 801.001 122.541C796.53 119.177 790.305 119.975 785.001 120.541C780.443 122.774 779.319 125.667 777.632 130.341C776.637 133.809 776.541 137.136 776.524 140.725C776.501 141.836 776.501 141.836 776.477 142.97C776.43 145.306 776.402 147.642 776.376 149.979C776.339 152.34 776.299 154.701 776.253 157.062C776.226 158.525 776.204 159.987 776.189 161.449C776.111 166.431 776.111 166.431 775.001 167.541C773.169 167.64 771.334 167.671 769.501 167.666C768.5 167.669 767.5 167.671 766.469 167.674C764.001 167.541 764.001 167.541 763.001 166.541C762.907 164.731 762.883 162.917 762.887 161.104C762.887 159.942 762.887 158.781 762.887 157.585C762.893 156.321 762.898 155.058 762.903 153.756C762.904 152.47 762.906 151.184 762.907 149.859C762.911 146.435 762.921 143.01 762.932 139.586C762.942 136.094 762.947 132.602 762.952 129.11C762.963 122.254 762.98 115.397 763.001 108.541C767.291 108.541 771.581 108.541 776.001 108.541C776.331 110.191 776.661 111.841 777.001 113.541C777.743 112.923 778.486 112.304 779.251 111.666C786.392 106.148 795.48 105.884 804.032 108.451Z" fill="#F9F9FA"/>
<path d="M518.001 113.541C521.198 116.822 524.409 120.185 526.001 124.541C525.626 127.291 525.626 127.291 525.001 129.541C520.947 129.885 517.044 130.077 513.001 129.541C510.564 126.728 510.564 126.728 509.001 123.541C503.509 119.368 497.614 119.659 491.001 120.541C487.309 122.168 485.485 124.88 483.126 128.103C480.998 134.607 480.793 141.71 483.626 148.041C485.846 151.727 487.987 153.789 492.001 155.541C497.256 156.303 502.212 156.345 507.001 153.853C510.108 151.808 510.108 151.808 511.302 148.916C513.001 146.541 513.001 146.541 515.919 146.053C516.998 146.111 518.077 146.169 519.189 146.228C520.276 146.273 521.362 146.319 522.482 146.365C523.729 146.452 523.729 146.452 525.001 146.541C525.861 149.447 526.237 150.987 525.033 153.822C519.189 162.29 513.239 166.653 503.001 168.541C493.339 169.755 486.048 168.09 478.001 162.541C472.013 157.276 468.064 151.112 467.533 143.053C467.498 141.445 467.489 139.836 467.501 138.228C467.507 137.388 467.513 136.548 467.519 135.682C467.771 126.9 470.411 121.138 476.314 114.666C488.072 103.804 505.568 103.594 518.001 113.541Z" fill="#F6F6F7"/>
<path d="M377 87.5413C395.81 87.5413 414.62 87.5413 434 87.5413C434 98.5413 434 98.5413 433 99.5413C431.438 99.6281 429.873 99.6483 428.309 99.6389C427.364 99.6357 426.42 99.6325 425.447 99.6292C424.454 99.6208 423.461 99.6124 422.438 99.6038C421.44 99.5992 420.443 99.5947 419.416 99.5901C416.944 99.5783 414.472 99.5618 412 99.5413C412.002 100.378 412.004 101.216 412.007 102.078C412.027 109.951 412.042 117.824 412.052 125.697C412.057 129.745 412.064 133.792 412.075 137.84C412.086 141.744 412.092 145.647 412.095 149.55C412.097 151.043 412.1 152.535 412.106 154.027C412.113 156.111 412.114 158.194 412.114 160.277C412.116 161.465 412.118 162.653 412.12 163.877C412 166.541 412 166.541 411 167.541C409.191 167.666 407.376 167.717 405.562 167.729C404.574 167.743 403.585 167.757 402.566 167.772C400 167.541 400 167.541 398 165.541C397.759 162.795 397.759 162.795 397.773 159.256C397.773 158.612 397.772 157.968 397.772 157.304C397.773 155.172 397.789 153.04 397.805 150.908C397.808 149.432 397.811 147.955 397.813 146.478C397.821 142.588 397.841 138.699 397.863 134.809C397.883 130.841 397.892 126.873 397.902 122.905C397.924 115.117 397.958 107.329 398 99.5413C397.399 99.5465 396.799 99.5517 396.18 99.5571C393.474 99.5778 390.768 99.5909 388.062 99.6038C387.117 99.6121 386.171 99.6205 385.197 99.6292C383.849 99.634 383.849 99.634 382.473 99.6389C381.64 99.6442 380.807 99.6494 379.949 99.6548C378 99.5413 378 99.5413 377 98.5413C377 94.9113 377 91.2813 377 87.5413Z" fill="#F7F7F8"/>
<path d="M865.23 119.26C870.982 121.936 874.506 125.676 877 131.541C877.986 138.824 877.122 145.383 873 151.541C870.091 155.09 867.404 156.345 862.867 156.979C857.836 157.162 854.05 157.02 849.438 154.916C844.101 149.717 841.861 145.106 841.75 137.729C841.827 131.911 842.388 128.099 846.688 123.889C852.473 118.766 857.503 116.77 865.23 119.26Z" fill="#1E2228"/>
<path d="M628.001 107.541C629.001 108.541 629.001 108.541 629.133 111.01C629.131 112.01 629.128 113.011 629.126 114.041C629.13 115.542 629.13 115.542 629.133 117.073C629.001 119.541 629.001 119.541 628.001 120.541C626.442 120.812 624.878 121.057 623.313 121.291C618.125 122.293 615.596 123.676 612.001 127.541C609.811 131.746 609.676 135.786 609.622 140.432C609.605 141.177 609.588 141.922 609.57 142.69C609.517 145.057 609.477 147.424 609.438 149.791C609.394 152.173 609.348 154.554 609.295 156.935C609.263 158.414 609.236 159.893 609.215 161.373C609.112 166.43 609.112 166.43 608.001 167.541C606.169 167.64 604.334 167.671 602.501 167.666C601.5 167.669 600.5 167.672 599.469 167.674C597.001 167.541 597.001 167.541 596.001 166.541C595.907 164.731 595.883 162.917 595.887 161.104C595.887 159.943 595.887 158.781 595.887 157.585C595.893 156.322 595.898 155.058 595.903 153.756C595.904 152.47 595.906 151.184 595.907 149.859C595.911 146.435 595.921 143.011 595.932 139.586C595.942 136.094 595.947 132.602 595.952 129.11C595.963 122.254 595.98 115.398 596.001 108.541C600.291 108.541 604.581 108.541 609.001 108.541C609.331 110.851 609.661 113.161 610.001 115.541C610.558 114.778 611.114 114.015 611.688 113.229C616.504 107.633 620.86 106.774 628.001 107.541Z" fill="#FAFAFB"/>
<path d="M739.942 108.444C741.734 108.461 741.734 108.461 743.563 108.479C745.359 108.492 745.359 108.492 747.192 108.506C748.119 108.518 749.045 108.529 750 108.541C750.023 116.086 750.041 123.631 750.052 131.176C750.057 134.679 750.064 138.182 750.076 141.686C750.089 145.709 750.094 149.733 750.098 153.756C750.103 155.02 750.108 156.283 750.114 157.585C750.114 158.746 750.114 159.907 750.114 161.104C750.116 162.132 750.118 163.16 750.121 164.219C750 166.541 750 166.541 749 167.541C747.191 167.666 745.376 167.717 743.563 167.729C742.574 167.743 741.585 167.757 740.567 167.772C738 167.541 738 167.541 736 165.541C735.753 163.182 735.753 163.182 735.757 160.189C735.754 159.072 735.751 157.954 735.748 156.802C735.755 155.591 735.762 154.379 735.77 153.131C735.77 151.893 735.771 150.656 735.771 149.38C735.775 146.088 735.788 142.795 735.805 139.503C735.818 136.148 735.815 132.793 735.815 129.438C735.82 126.898 735.825 124.358 735.832 121.819C735.833 120.605 735.835 119.392 735.836 118.141C735.842 117.027 735.848 115.912 735.855 114.764C735.859 113.777 735.863 112.791 735.867 111.774C736.072 108.351 736.451 108.56 739.942 108.444Z" fill="#F3F3F4"/>
<path d="M444.001 108.541C448.291 108.541 452.581 108.541 457.001 108.541C457.023 116.086 457.042 123.631 457.052 131.176C457.058 134.679 457.065 138.182 457.076 141.685C457.089 145.709 457.094 149.732 457.098 153.756C457.103 155.019 457.109 156.283 457.114 157.585C457.114 158.746 457.114 159.907 457.114 161.103C457.116 162.131 457.119 163.16 457.121 164.219C457.001 166.541 457.001 166.541 456.001 167.541C454.169 167.64 452.334 167.671 450.501 167.666C449.5 167.669 448.5 167.671 447.469 167.674C445.001 167.541 445.001 167.541 444.001 166.541C443.907 164.73 443.883 162.916 443.887 161.103C443.887 159.942 443.887 158.781 443.887 157.585C443.893 156.321 443.898 155.058 443.903 153.756C443.904 152.47 443.906 151.184 443.907 149.859C443.911 146.435 443.921 143.01 443.932 139.586C443.942 136.094 443.947 132.602 443.952 129.109C443.963 122.253 443.98 115.397 444.001 108.541Z" fill="#FBFBFC"/>
<path d="M452.025 83.0605C455.577 83.9242 457.031 85.5535 459.001 88.541C459.001 92.0482 458.879 94.3903 456.716 97.2246C453.97 99.3327 451.515 99.0141 448.165 98.8887C446.001 98.541 446.001 98.541 443.439 96.916C441.551 93.7968 441.414 92.1349 442.001 88.541C444.411 83.921 446.746 82.6948 452.025 83.0605Z" fill="#F3F3F3"/>
<path d="M747.001 83.5412C749.501 85.1037 749.501 85.1037 751.001 87.5412C751.56 91.4473 751.585 93.5923 749.501 96.9787C746.47 98.8736 744.441 99.1815 740.908 98.9904C739.001 98.5412 739.001 98.5412 736.501 96.4162C734.746 93.0508 734.365 91.281 735.001 87.5412C737.957 82.8622 741.892 82.5255 747.001 83.5412Z" fill="#F6F6F7"/>
<path d="M329.557 68.9803C332.858 73.0566 333.992 77.1234 335.377 82.1249C335.649 83.0311 335.921 83.9373 336.201 84.871C338.141 91.5841 338.141 91.5841 337.002 94.9999C335.435 91.042 334.013 87.1111 332.865 83.0116C332.661 82.302 332.457 81.5923 332.247 80.8612C331.838 79.4281 331.445 77.9905 331.068 76.5487C330.096 73.1885 329.36 71.2841 326.588 69.0819C311.462 62.7527 291.766 67.2932 276.274 70.3968C275.093 70.6294 273.913 70.8619 272.697 71.1014C271.646 71.3214 270.594 71.5413 269.51 71.7679C268.683 71.8445 267.855 71.921 267.002 71.9999C266.342 71.3399 265.682 70.6799 265.002 69.9999C269.147 69.1814 273.293 68.3712 277.439 67.5624C278.604 67.3323 279.769 67.1022 280.969 66.8651C317.635 59.7384 317.635 59.7384 329.557 68.9803Z" fill="#1591CD"/>
<path d="M133.002 199C132.695 202.382 132.275 204.59 130.377 207.438C128.002 209 128.002 209 124.564 209.062C120.461 207.839 118.737 206.232 116.002 203C121.548 200.574 126.943 199 133.002 199Z" fill="#E5E6E6"/>
<path d="M337.002 94.9998C337.662 94.9998 338.322 94.9998 339.002 94.9998C339.198 95.7402 339.395 96.4807 339.597 97.2437C340.5 100.642 341.407 104.04 342.314 107.437C342.623 108.602 342.932 109.767 343.25 110.967C344.623 116.099 346.018 121.192 347.732 126.222C349.002 130 349.002 130 349.002 132C347.022 131.67 345.042 131.34 343.002 131C343.002 130.34 343.002 129.68 343.002 129C343.992 129 344.982 129 346.002 129C345.066 125.708 344.128 122.416 343.189 119.125C342.928 118.207 342.667 117.289 342.398 116.344C340.847 110.903 339.245 105.485 337.546 100.089C337.002 97.9998 337.002 97.9998 337.002 94.9998Z" fill="#1191D3"/>
</svg>
